<?xml version="1.0" encoding="UTF-8"?>
<!-- Created with Inkscape (http://www.inkscape.org/) -->
<svg width="200mm" height="200mm" version="1.1" viewBox="0 0 200 200" xml:space="preserve" xmlns="http://www.w3.org/2000/svg"><g transform="translate(-61.37,77.068)"><g transform="matrix(.95314 0 0 .96677 2.7203 -3.9822)"><ellipse cx="166.45" cy="27.839" rx="102.76" ry="101.28" fill="#ffffff" stroke="#a5243d" stroke-width="4.3133"/><g transform="matrix(3.1547,0,0,3.1547,-350.79,-92.239)"><g transform="translate(12.402,-10.941)"><path d="m147.18 24.959s-4.8389 4.0123-0.20069 7.0104c4.6382 2.9981 2.3073 9.2176-1.3163 10.781 0 0 3.0474-1.1228-1.8298-6.909-4.8773-5.7862-1.7843-7.7543-1.7843-7.7543s1.7833-2.5399 5.1311-3.1284" fill="#a5243d"/><path d="m153.92 20.82s-3.0115 3.7489 0.38369 6.5378c3.3951 2.7889 0.6079 8.6651-2.0446 10.12 0 0 2.7101-1.6928-0.78897-6.5342-3.6927-5.1093-1.3061-7.2133-1.3061-7.2133s1.3053-2.3627 3.7559-2.9101" fill="#8acb88"/><path d="m149.18 47.506s12.736-5.6444 0.70564-7.3101c0 0 4.1988-0.6797 8.826-0.42597 0.80281 0.08152 2.0821 0.13483 3.1014 0.30374 1.2286 0.20359 2.1798 0.65321 2.464 0.91166 0.87742 0.79788 0.68492 2.6045-4.6462 4.3143-4.4584 1.4826-8.6683 2.1279-10.451 2.2064z" fill="#8acb88"/><path d="m142.65 40.898c-0.0498-0.01718-13.123 5.1966 1.7464 6.983 7.5082 0.90202 11.062-0.62091 15.021-1.6755 3.1386-0.83594 5.3165-2.0219 6.011-2.7511 0.82317-0.79842 3.2691-3.1878-3.3677-4.057-7.6144-0.99714-14.67 0.47738-14.67 0.47738s0.57225-0.21 2.1082-0.74458c2.3072-0.80297 7.7612-1.4179 10.091-1.3633 2.9138 0.0683 5.3157 0.65164 6.4707 1.1052 2.0785 0.81619 2.9346 2.2907 1.7693 3.8674-0.27283 0.36917-0.93454 1.1472-1.8613 1.8363-1.0596 0.78789-2.0072 1.3901-2.7705 1.8182-1.5075 0.84547-4.9457 2.4638-12.032 3.0838-7.0862 0.61995-11.582-0.40596-13.094-0.79324-1.5119-0.38728-4.6611-0.98746-3.3211-3.739 1.3426-2.757 7.8981-4.0477 7.8981-4.0477z" fill="#a5243d"/><path d="m139.84 49.593s2.6991 1.1236 9.1831 0.85896c3.9849-0.16266 10.077-1.1489 14.828-2.8531 0 0-3.7253 3.1949-12.339 3.8249-11.09 0.81113-11.673-1.8307-11.673-1.8307z" fill="#a5243d"/></g><g fill="#a5243d" stroke-width=".9537" aria-label="Ô Kiosque"><path d="m149.29 40.637h0.21363l0.61038 1.9227h-0.32554l-0.61037-0.81383-1.5971 0.81383h-0.44761zm-2.0041 10.234q-0.85452 0-1.3428-0.4883-0.47813-0.4883-0.47813-1.5565 0-0.90539 0.32553-2.0346 0.32554-1.1292 0.94608-1.9329 0.63072-0.80366 1.4852-0.80366 0.30519 0 0.52899 0.08138-0.44761 0.2645-0.8647 1.0885-0.40691 0.824-0.66124 1.8413-0.25432 1.0173-0.25432 1.8006 0 0.54934 0.14242 0.8647t0.44761 0.31536q0.49847 0 0.98677-0.7121 0.49847-0.72228 0.81383-1.8108 0.32554-1.0885 0.32554-2.0956 0-0.63072-0.11191-1.0071-0.10173-0.38657-0.38657-0.57986t-0.80366-0.19328q-0.78331 0-1.4547 0.32553-0.67141 0.31536-1.0783 0.91556-0.39674 0.59003-0.39674 1.3733 0 0.27467 0.0509 0.40692 0.0509 0.12208 0.0509 0.14242-0.50865 0-0.77314-0.20346-0.25432-0.20346-0.25432-0.65107 0-0.70193 0.56968-1.3428 0.57985-0.64089 1.5259-1.0376 0.95626-0.39674 2.0041-0.39674 1.2716 0 1.8413 0.69176 0.56968 0.69176 0.56968 1.9125 0 1.0885-0.40691 2.2686-0.40692 1.1801-1.2614 2.0041-0.84435 0.81383-2.0854 0.81383z"/><path d="m157.77 50.983q-0.79348 0-0.79348-0.68158 0-0.2238 0.061-0.50864 0.0712-0.29502 0.19329-0.7528 0.14242-0.47813 0.21363-0.81383 0.0712-0.33571 0.0712-0.6002 0-0.69176-0.61038-0.69176-0.17293 0-0.3357 0.04069l-0.81383 3.8352h-1.4649l1.4751-6.9176q-0.68158 0.28484-1.058 0.85452-0.36623 0.56968-0.36623 1.3733 0 0.3764 0.0712 0.52899 0.0712 0.14242 0.0712 0.16277-0.54933 0-0.824-0.2238-0.2645-0.23398-0.2645-0.76297 0-0.65106 0.52899-1.2614 0.53917-0.62055 1.3734-0.99694 0.83417-0.38657 1.6684-0.38657 0.14242 0 0.40692 0.02035l-0.66124 3.1129 1.0478-1.4039q1.2513-1.6887 1.2614-1.6785h1.0682l-2.8281 3.2553 0.35605-0.01017q0.69175 0 0.9766 0.29501 0.28484 0.28484 0.28484 0.79349 0 0.29501-0.0712 0.63072-0.0712 0.32553-0.20346 0.81383-0.0814 0.31536-0.15259 0.62055-0.0712 0.30519-0.0712 0.50864 0 0.23398 0.10172 0.41709 0.11191 0.18311 0.29502 0.25432-0.62055 0.17294-1.0071 0.17294z"/><path d="m161.15 45.174q-0.3357 0-0.56968-0.23398t-0.23398-0.56968q0-0.33571 0.23398-0.56968 0.23398-0.24415 0.56968-0.24415 0.33571 0 0.56969 0.24415 0.24414 0.23398 0.24414 0.56968t-0.24414 0.56968q-0.23398 0.23398-0.56969 0.23398zm-0.69175 5.6968q-0.4883 0-0.79349-0.30519-0.29501-0.30519-0.29501-0.91556 0-0.25432 0.0814-0.66124l0.69176-3.2655h1.4649l-0.73245 3.4588q-0.0407 0.15259-0.0407 0.32553 0 0.20346 0.0916 0.29501 0.10173 0.08138 0.32553 0.08138 0.29502 0 0.54934-0.24415 0.25432-0.25432 0.36622-0.65107h0.42726q-0.37639 1.0987-0.96642 1.4954-0.59003 0.38657-1.1699 0.38657z"/><path d="m167.68 50.871q-0.81384 0-1.119-0.38657-0.29502-0.38657-0.29502-0.96643 0-0.42726 0.22381-0.69176 0.2238-0.27467 0.50864-0.27467 0.52899 0 0.52899 0.42726 0 0.18311-0.14242 0.32553-0.14242 0.13225-0.34588 0.13225-0.21363 0-0.27466-0.13225 0 0.36622 0.14242 0.56968 0.15259 0.19328 0.4476 0.19328 0.34588 0 0.4883-0.20346 0.1526-0.21363 0.1526-0.74262 0-0.30519-0.061-0.77314-0.10173-0.9766-0.16277-1.9939-0.72227 1.1088-1.709 1.4039-0.061 0.93591-0.39675 1.6378-0.3357 0.70193-0.86469 1.0783-0.51882 0.3764-1.1495 0.3764-0.7528 0-1.1902-0.38657-0.43744-0.38657-0.43744-1.2207 0-0.70193 0.27467-1.5361 0.27467-0.84435 0.89522-1.4547 0.62054-0.62055 1.587-0.62055 1.292 0 1.3021 1.5971 0.7528-0.04069 1.6582-1.6175l1.5056-0.20346q0.0509 1.3021 0.17294 2.8179 0.0509 0.61037 0.0509 0.88504 0 0.20346-0.0305 0.3764 0.30519-0.17294 0.72227-0.49847h0.42727q-0.55951 0.65107-1.414 1.1902-0.25432 0.36622-0.65106 0.52899-0.38657 0.16277-0.84435 0.16277zm-3.6216-0.93591q0.3764 0 0.70193-0.6002 0.32554-0.61037 0.44761-1.5056-0.24415-0.09156-0.24415-0.45778 0-0.39674 0.28484-0.52899-0.0203-0.32553-0.1119-0.45778-0.0814-0.13225-0.27467-0.13225-0.3357 0-0.64089 0.4883-0.30519 0.47813-0.49847 1.1699-0.18311 0.68158-0.18311 1.2004 0 0.4883 0.1119 0.66124 0.1119 0.16277 0.40691 0.16277z"/><path d="m172.59 50.311q-0.51882 0.55951-1.2106 0.55951-0.57986 0-0.96643-0.39674t-0.38657-1.2411q0-0.7528 0.29501-1.5768 0.30519-0.83418 0.89522-1.4039 0.6002-0.57986 1.4242-0.57986 0.41708 0 0.62054 0.14242t0.20346 0.3764v0.02035l0.10173-0.4883h1.4649l-1.5463 7.2635-1.5361 0.36622zm-0.54934-0.42726q0.22381 0 0.44761-0.19328 0.23398-0.19329 0.34588-0.52899l0.53916-2.5127q-0.0814-0.34588-0.41708-0.34588-0.40692 0-0.73245 0.47813-0.32554 0.46795-0.50865 1.1394-0.18311 0.66124-0.18311 1.1699t0.14242 0.65107q0.15259 0.14242 0.36622 0.14242z"/><path d="m176.11 50.871q-0.4883 0-0.79349-0.30519-0.29502-0.30519-0.29502-0.91556 0-0.25432 0.0814-0.66124l0.69176-3.2655h1.4649l-0.73245 3.4588q-0.0305 0.15259-0.0305 0.28484 0 0.41709 0.30518 0.41709 0.28484 0 0.4883-0.23398 0.20346-0.24415 0.32553-0.66124l0.69176-3.2655h1.4649l-0.73245 3.4588q-0.0407 0.15259-0.0407 0.32553 0 0.20346 0.0915 0.29501 0.10173 0.08138 0.32554 0.08138 0.28484 0 0.4883-0.24415 0.21363-0.24415 0.3357-0.65107h0.42726q-0.37639 1.0987-0.9359 1.4954-0.54934 0.38657-1.1088 0.38657-0.43743 0-0.70193-0.24415-0.25432-0.24415-0.30519-0.72228-0.34587 0.55951-0.73244 0.76297-0.3764 0.20346-0.77314 0.20346z"/><path d="m181.68 50.871q-0.74262 0-1.1597-0.38657-0.41709-0.39674-0.41709-1.2309 0-0.70193 0.27467-1.5463t0.89522-1.4547q0.62054-0.62055 1.5768-0.62055 1.119 0 1.119 0.9766 0 0.56968-0.32554 1.0478-0.32553 0.47813-0.86469 0.77314-0.53917 0.28484-1.1495 0.32553-0.0204 0.2238-0.0204 0.30519 0 0.84435 0.63072 0.84435 0.28484 0 0.61038-0.15259 0.32553-0.15259 0.59002-0.38657-0.27466 1.5056-1.7599 1.5056zm0.0204-2.6043q0.38657-0.01017 0.72227-0.25432 0.34588-0.24415 0.54934-0.62055 0.21363-0.38657 0.21363-0.80366t-0.25432-0.41709q-0.35605 0-0.7121 0.65107-0.34588 0.64089-0.51882 1.4446z"/></g><g fill="#8acb88" stroke-width=".6124" aria-label="Pizzas et Cuisine"><path d="m144.95 54.098 0.96677-0.13064-0.46379 2.1818q0.31355-0.02613 0.57484-0.27436 0.26783-0.24823 0.41807-0.61403 0.15024-0.36581 0.15024-0.71855 0-0.39194-0.2025-0.64016-0.2025-0.24823-0.6075-0.24823-0.79694 0-1.2477 0.41806-0.4442 0.41807-0.4442 1.1693 0 0.24169 0.0457 0.33968 0.0457 0.09145 0.0457 0.10452-0.35274 0-0.52911-0.14371-0.16984-0.15024-0.16984-0.48992 0-0.41806 0.33968-0.81 0.34621-0.39847 0.88185-0.64016 0.53565-0.24823 1.0713-0.24823 0.51605 0 0.86226 0.17637t0.50951 0.47032q0.16984 0.28742 0.16984 0.64016 0 0.4246-0.23516 0.8296-0.22863 0.405-0.65976 0.66629-0.43113 0.25476-0.9929 0.25476h-0.0327l-0.39846 1.8617h-0.94065z"/><path d="m148.28 54.633q-0.21557 0-0.36581-0.15024t-0.15024-0.36581 0.15024-0.36581q0.15024-0.15677 0.36581-0.15677 0.21556 0 0.3658 0.15677 0.15678 0.15024 0.15678 0.36581t-0.15678 0.36581q-0.15024 0.15024-0.3658 0.15024zm-0.4442 3.6581q-0.31355 0-0.50952-0.19597-0.18943-0.19597-0.18943-0.5879 0-0.16331 0.0523-0.4246l0.44419-2.0969h0.94065l-0.47033 2.221q-0.0261 0.09798-0.0261 0.20903 0 0.13064 0.0588 0.18944 0.0653 0.05226 0.20903 0.05226 0.11758 0 0.20903-0.03919-0.0261 0.32661-0.23516 0.50298-0.2025 0.16984-0.48339 0.16984zm2.3843-2.9526h-0.36581q-0.1829 0-0.27435 0.0196-0.0849 0.0196-0.0849 0.08492 0 0.01307 0.0327 0.03266 0.0392 0.01306 0.0392 0.11105 0 0.16984-0.10451 0.26129-0.10452 0.08492-0.24823 0.08492-0.12411 0-0.21556-0.07185-0.0849-0.07839-0.0849-0.21556 0-0.13718 0.0915-0.29395 0.098-0.15677 0.26782-0.26129 0.17637-0.10452 0.39847-0.10452h1.6788l-1.6004 2.7632q0.0392 0 0.14371 0.01306 0.22209 0.02613 0.35274 0.02613 0.28089 0 0.30702-0.13064-0.0588-0.0065-0.0915-0.03919-0.0327-0.03919-0.0327-0.09798 0-0.10452 0.098-0.18944 0.098-0.09145 0.26782-0.09145 0.14371 0 0.21556 0.08492 0.0719 0.08492 0.0719 0.22863 0 0.15678-0.098 0.32008-0.098 0.16331-0.28089 0.27436-0.18291 0.10452-0.41807 0.10452h-1.731z"/><path d="m153.02 55.339h-0.36581q-0.1829 0-0.27436 0.0196-0.0849 0.0196-0.0849 0.08492 0 0.01307 0.0327 0.03266 0.0392 0.01306 0.0392 0.11105 0 0.16984-0.10452 0.26129-0.10451 0.08492-0.24822 0.08492-0.12412 0-0.21557-0.07185-0.0849-0.07839-0.0849-0.21556 0-0.13718 0.0915-0.29395 0.098-0.15677 0.26783-0.26129 0.17637-0.10452 0.39847-0.10452h1.6788l-1.6004 2.7632q0.0392 0 0.14371 0.01306 0.2221 0.02613 0.35274 0.02613 0.28089 0 0.30702-0.13064-0.0588-0.0065-0.0915-0.03919-0.0327-0.03919-0.0327-0.09798 0-0.10452 0.098-0.18944 0.098-0.09145 0.26783-0.09145 0.14371 0 0.21556 0.08492 0.0719 0.08492 0.0719 0.22863 0 0.15678-0.098 0.32008-0.098 0.16331-0.28089 0.27436-0.1829 0.10452-0.41806 0.10452h-1.731z"/><path d="m154.93 58.291q-0.37234 0-0.62057-0.25476-0.24822-0.25476-0.24822-0.79694 0-0.48339 0.18943-1.0125 0.19597-0.53565 0.57484-0.90145 0.38541-0.37234 0.91452-0.37234 0.26782 0 0.39847 0.09145 0.13064 0.09145 0.13064 0.24169v0.04573l0.0719-0.34621h0.94064l-0.47032 2.221q-0.0261 0.09798-0.0261 0.20903 0 0.28089 0.26783 0.28089 0.1829 0 0.31354-0.16984 0.13718-0.16984 0.21557-0.44419h0.27435q-0.24169 0.70548-0.60096 0.96024-0.35275 0.24823-0.71202 0.24823-0.27436 0-0.4442-0.15024-0.1633-0.15678-0.19596-0.45073-0.18944 0.26782-0.4246 0.43766-0.22863 0.16331-0.54871 0.16331zm0.4246-0.63363q0.1633 0 0.32008-0.15024 0.1633-0.15677 0.22209-0.4246l0.31355-1.4763q0-0.08492-0.0653-0.16331-0.0653-0.08492-0.2025-0.08492-0.26129 0-0.47032 0.30702-0.20904 0.30048-0.32662 0.73161-0.11758 0.4246-0.11758 0.75121t0.0915 0.41807q0.098 0.09145 0.23517 0.09145z"/><path d="m158.33 58.291q-0.31355 0-0.52911-0.11758-0.21557-0.12411-0.32008-0.31355-0.10452-0.19597-0.10452-0.405 0-0.21556 0.10452-0.37234 0.098-0.16331 0.24169-0.23516 0.25476-0.45726 0.44419-0.92105 0.18944-0.47032 0.35928-1.0125l0.96678-0.13064q0.0327 0.83613 0.11104 1.8094 0.0327 0.39194 0.0327 0.56831 0 0.39847-0.2025 0.65323-0.20251 0.25476-0.50299 0.36581-0.29395 0.11105-0.60097 0.11105zm-0.20903-0.51605q0.24169 0 0.405-0.14371t0.16331-0.46379q0-0.19597-0.0392-0.54871-0.0653-0.74468-0.0849-0.99944-0.15677 0.51605-0.52911 1.2346 0.15024 0.07839 0.15024 0.22863 0 0.12411-0.0849 0.2221-0.0784 0.09798-0.2025 0.09798-0.13718 0-0.17637-0.08492 0 0.23516 0.0914 0.34621 0.098 0.11105 0.30702 0.11105z"/><path d="m162 58.291q-0.48339 0-0.75121-0.24823-0.26782-0.25476-0.26782-0.7904 0-0.45073 0.17637-0.9929 0.17637-0.54218 0.57484-0.93412 0.39847-0.39847 1.0125-0.39847 0.71855 0 0.71855 0.6271 0 0.36581-0.20903 0.67282-0.20903 0.30702-0.55524 0.49645-0.34621 0.1829-0.73815 0.20903-0.0131 0.19597-0.0131 0.26129 0 0.32008 0.11105 0.43766 0.11105 0.11105 0.35928 0.11105 0.35274 0 0.60097-0.16331 0.25476-0.16331 0.55524-0.49645h0.2221q-0.72509 1.2085-1.7964 1.2085zm0.0131-1.6723q0.24169-0.01306 0.45726-0.16984 0.22209-0.15678 0.35274-0.39847 0.13718-0.24169 0.13718-0.50952t-0.16331-0.26782q-0.23516 0-0.46379 0.41153-0.2221 0.41153-0.32008 0.93412z"/><path d="m164.19 58.291q-0.33314 0-0.49645-0.2025-0.15677-0.2025-0.15677-0.53565 0-0.16984 0.0392-0.34621l0.41807-1.9597h-0.21557l0.0523-0.26129h0.21556l0.19597-0.90145 0.96678-0.13065q-0.0588 0.24823-0.0653 0.29395-0.0457 0.1829-0.15678 0.73815h0.39194l-0.0523 0.26129h-0.39194l-0.41806 1.9597q-0.0327 0.14371-0.0327 0.22863 0 0.23516 0.22863 0.23516 0.11758 0 0.16983-0.0196-0.13064 0.37887-0.30701 0.50952t-0.38541 0.13065z"/><path d="m168.35 58.357q-0.73815 0-1.0844-0.37234t-0.34621-1.2346q0-0.68589 0.22863-1.4763 0.23516-0.7904 0.74468-1.3522 0.51605-0.56831 1.3064-0.56831 0.48992 0 0.79041 0.21556 0.30048 0.21556 0.30048 0.65976 0 0.28089-0.11105 0.44419-0.11104 0.15678-0.34621 0.15678-0.23516 0-0.37234-0.16984 0.11759-0.05879 0.20904-0.23516 0.0915-0.17637 0.0915-0.36581 0-0.17637-0.098-0.28742-0.0915-0.11105-0.30049-0.11105-0.34621 0-0.65976 0.47686-0.31355 0.47032-0.50952 1.1889-0.18946 0.71855-0.18946 1.3848 0 0.49645 0.16984 0.75774t0.61403 0.26129q0.3854 0 0.71202-0.16984 0.32661-0.16984 0.56177-0.48339l0.15025 0.06532q-0.16331 0.41153-0.48339 0.68589t-0.68589 0.405q-0.36581 0.12411-0.69242 0.12411z"/><path d="m170.68 58.291q-0.31355 0-0.50952-0.19597-0.18943-0.19597-0.18943-0.5879 0-0.16331 0.0523-0.4246l0.4442-2.0969h0.94065l-0.47033 2.221q-0.0196 0.09798-0.0196 0.1829 0 0.26782 0.19596 0.26782 0.18291 0 0.31355-0.15024 0.13065-0.15677 0.20904-0.4246l0.44419-2.0969h0.94065l-0.47033 2.221q-0.0261 0.09798-0.0261 0.20903 0 0.13064 0.0588 0.18944 0.0653 0.05226 0.20904 0.05226 0.1829 0 0.31355-0.15678 0.13717-0.15677 0.21556-0.41806h0.27436q-0.2417 0.70548-0.60097 0.96024-0.35274 0.24823-0.71202 0.24823-0.28089 0-0.45073-0.15678-0.1633-0.15677-0.19596-0.46379-0.2221 0.35928-0.47033 0.48992-0.24169 0.13065-0.49645 0.13065z"/><path d="m174.43 54.633q-0.21556 0-0.3658-0.15024-0.15025-0.15024-0.15025-0.36581t0.15025-0.36581q0.15024-0.15677 0.3658-0.15677 0.21557 0 0.36581 0.15677 0.15678 0.15024 0.15678 0.36581t-0.15678 0.36581q-0.15024 0.15024-0.36581 0.15024zm-0.44419 3.6581q-0.31355 0-0.50952-0.19597-0.18943-0.19597-0.18943-0.5879 0-0.16331 0.0522-0.4246l0.4442-2.0969h0.94065l-0.47033 2.221q-0.0261 0.09798-0.0261 0.20903 0 0.13064 0.0588 0.18944 0.0653 0.05226 0.20904 0.05226 0.18943 0 0.35274-0.15678 0.16331-0.16331 0.23516-0.41806h0.27436q-0.2417 0.70548-0.62057 0.96024-0.37887 0.24823-0.75121 0.24823z"/><path d="m175.83 58.291q-0.31355 0-0.52911-0.11758-0.21557-0.12411-0.32009-0.31355-0.10451-0.19597-0.10451-0.405 0-0.21556 0.10451-0.37234 0.098-0.16331 0.2417-0.23516 0.25476-0.45726 0.44419-0.92105 0.18944-0.47032 0.35928-1.0125l0.96677-0.13064q0.0327 0.83613 0.11105 1.8094 0.0327 0.39194 0.0327 0.56831 0 0.15024-0.0261 0.24823 0.30702-0.17637 0.47033-0.32661h0.27435q-0.41806 0.48339-0.99943 0.81653-0.18944 0.2025-0.47033 0.30048-0.27435 0.09145-0.55524 0.09145zm-0.20903-0.51605q0.24169 0 0.405-0.14371 0.1633-0.14371 0.1633-0.46379 0-0.19597-0.0392-0.54871-0.0653-0.74468-0.0849-0.99944-0.15677 0.51605-0.52911 1.2346 0.15024 0.07839 0.15024 0.22863 0 0.12411-0.0849 0.2221-0.0784 0.09798-0.2025 0.09798-0.13718 0-0.17637-0.08492 0 0.23516 0.0914 0.34621 0.098 0.11105 0.30702 0.11105z"/><path d="m178.67 54.633q-0.21557 0-0.36581-0.15024t-0.15024-0.36581 0.15024-0.36581q0.15024-0.15677 0.36581-0.15677 0.21556 0 0.3658 0.15677 0.15678 0.15024 0.15678 0.36581t-0.15678 0.36581q-0.15024 0.15024-0.3658 0.15024zm-0.4442 3.6581q-0.31355 0-0.50952-0.19597-0.18943-0.19597-0.18943-0.5879 0-0.16331 0.0523-0.4246l0.44419-2.0969h0.94065l-0.47033 2.221q-0.0261 0.09798-0.0261 0.20903 0 0.13064 0.0588 0.18944 0.0653 0.05226 0.20903 0.05226 0.18943 0 0.35274-0.15678 0.16331-0.16331 0.23516-0.41806h0.27436q-0.2417 0.70548-0.62057 0.96024-0.37887 0.24823-0.75121 0.24823z"/><path d="m181.68 58.291q-0.39847 0-0.5879-0.20903-0.18291-0.21556-0.18291-0.52911 0-0.13718 0.0327-0.30702 0.0327-0.17637 0.0653-0.33968 0.0392-0.16331 0.0523-0.20903 0.0523-0.22863 0.098-0.45073t0.0457-0.35928q0-0.33314-0.23517-0.33314-0.16983 0-0.30048 0.16984-0.13065 0.16331-0.20903 0.43113l-0.4442 2.0969h-0.94064l0.69242-3.2661h0.94064l-0.0719 0.33968q0.32661-0.36581 0.76427-0.36581 0.33315 0 0.52912 0.1829t0.19597 0.55524q0 0.18944-0.0457 0.4246-0.0457 0.22863-0.13064 0.56178-0.0523 0.2025-0.098 0.39847-0.0392 0.18944-0.0392 0.30048 0 0.13065 0.0588 0.2025t0.2025 0.07185q0.19597 0 0.31355-0.13718 0.11758-0.14371 0.23516-0.43766h0.27435q-0.24169 0.71855-0.56177 0.96678-0.31355 0.24169-0.65323 0.24169z"/><path d="m183.54 58.291q-0.47685 0-0.74468-0.24823-0.26782-0.25476-0.26782-0.7904 0-0.45073 0.17637-0.9929 0.17637-0.54218 0.57484-0.93412 0.39847-0.39847 1.0125-0.39847 0.71855 0 0.71855 0.6271 0 0.36581-0.20903 0.67282-0.20903 0.30702-0.55524 0.49645-0.34621 0.1829-0.73815 0.20903-0.0131 0.14371-0.0131 0.19597 0 0.54218 0.405 0.54218 0.1829 0 0.39193-0.09798 0.20904-0.09798 0.37888-0.24823-0.17638 0.96678-1.1301 0.96678zm0.0131-1.6723q0.24822-0.0065 0.46379-0.16331 0.2221-0.15678 0.35274-0.39847 0.13718-0.24823 0.13718-0.51605t-0.16331-0.26782q-0.22863 0-0.45726 0.41806-0.22209 0.41153-0.33314 0.92758z"/></g></g></g></g></svg>
